<svg width="19" height="25" viewBox="0 0 19 25" fill="none" xmlns="http://www.w3.org/2000/svg">
<rect x="1.17767" y="0.25" width="17.5723" height="24.5" rx="0.75" fill="white" stroke="black" stroke-width="0.5"/>
<mask id="path-2-inside-1_27_112" fill="white">
<path d="M6.30457 12.6506C6.30457 12.4011 6.50685 12.1988 6.75637 12.1988H16.9053C17.1548 12.1988 17.3571 12.4011 17.3571 12.6506V12.6506C17.3571 12.9001 17.1548 13.1024 16.9053 13.1024H6.75637C6.50685 13.1024 6.30457 12.9001 6.30457 12.6506V12.6506Z"/>
</mask>
<path d="M6.30457 12.6506C6.30457 11.8488 6.95456 11.1988 7.75637 11.1988H15.9053C16.7071 11.1988 17.3571 11.8488 17.3571 12.6506V12.6506C17.3571 12.7704 17.3095 12.8853 17.2247 12.9701C17.14 13.0548 17.0251 13.1024 16.9053 13.1024H6.75637H6.30457H6.75637C6.63655 13.1024 6.52163 13.0548 6.4369 12.9701C6.35217 12.8853 6.30457 12.7704 6.30457 12.6506L6.30457 12.6506ZM17.3571 12.6506C17.3571 13.4524 16.7071 14.1024 15.9053 14.1024H7.75637C6.95456 14.1024 6.30457 13.4524 6.30457 12.6506V12.6506C6.30457 12.5308 6.35217 12.4159 6.4369 12.3311C6.52163 12.2464 6.63655 12.1988 6.75637 12.1988H6.75637H6.30457H16.9053C17.0251 12.1988 17.14 12.2464 17.2247 12.3311C17.3095 12.4159 17.3571 12.5308 17.3571 12.6506L17.3571 12.6506ZM6.30457 13.1024V12.1988V13.1024ZM17.3571 12.1988V13.1024V12.1988Z" fill="black" mask="url(#path-2-inside-1_27_112)"/>
<mask id="path-4-inside-2_27_112" fill="white">
<path d="M6.30457 14.006C6.30457 13.7565 6.50685 13.5542 6.75637 13.5542H16.9053C17.1548 13.5542 17.3571 13.7565 17.3571 14.006V14.006C17.3571 14.2555 17.1548 14.4578 16.9053 14.4578H6.75637C6.50685 14.4578 6.30457 14.2555 6.30457 14.006V14.006Z"/>
</mask>
<path d="M6.30457 14.006C6.30457 13.2042 6.95456 12.5542 7.75637 12.5542H15.9053C16.7071 12.5542 17.3571 13.2042 17.3571 14.006V14.006C17.3571 14.1258 17.3095 14.2408 17.2247 14.3255C17.14 14.4102 17.0251 14.4578 16.9053 14.4578H6.75637H6.30457H6.75637C6.63655 14.4578 6.52163 14.4102 6.4369 14.3255C6.35217 14.2408 6.30457 14.1258 6.30457 14.006L6.30457 14.006ZM17.3571 14.006C17.3571 14.8078 16.7071 15.4578 15.9053 15.4578H7.75637C6.95456 15.4578 6.30457 14.8078 6.30457 14.006V14.006C6.30457 13.8862 6.35217 13.7713 6.4369 13.6865C6.52163 13.6018 6.63655 13.5542 6.75637 13.5542H6.75637H6.30457H16.9053C17.0251 13.5542 17.14 13.6018 17.2247 13.6865C17.3095 13.7713 17.3571 13.8862 17.3571 14.006L17.3571 14.006ZM6.30457 14.4578V13.5542V14.4578ZM17.3571 13.5542V14.4578V13.5542Z" fill="black" mask="url(#path-4-inside-2_27_112)"/>
<mask id="path-6-inside-3_27_112" fill="white">
<path d="M6.29999 15.3518C6.29999 15.1023 6.50227 14.9 6.75179 14.9H11.3482C11.5977 14.9 11.8 15.1023 11.8 15.3518V15.3518C11.8 15.6014 11.5977 15.8036 11.3482 15.8036H6.75179C6.50227 15.8036 6.29999 15.6014 6.29999 15.3518V15.3518Z"/>
</mask>
<path d="M6.29999 15.3518C6.29999 14.55 6.94998 13.9 7.7518 13.9H10.3482C11.15 13.9 11.8 14.55 11.8 15.3518V15.3518C11.8 15.4717 11.7524 15.5866 11.6677 15.6713C11.5829 15.756 11.468 15.8036 11.3482 15.8036H6.7518H6.29999H6.7518C6.63197 15.8036 6.51705 15.756 6.43232 15.6713C6.34759 15.5866 6.29999 15.4717 6.29999 15.3518L6.29999 15.3518ZM11.8 15.3518C11.8 16.1536 11.15 16.8036 10.3482 16.8036H7.7518C6.94998 16.8036 6.29999 16.1536 6.29999 15.3518V15.3518C6.29999 15.232 6.34759 15.1171 6.43232 15.0324C6.51705 14.9476 6.63197 14.9 6.7518 14.9H6.7518H6.29999H11.3482C11.468 14.9 11.5829 14.9476 11.6677 15.0324C11.7524 15.1171 11.8 15.232 11.8 15.3518L11.8 15.3518ZM6.29999 15.8036V14.9V15.8036ZM11.8 14.9V15.8036V14.9Z" fill="black" mask="url(#path-6-inside-3_27_112)"/>
<rect x="2.67126" y="12.1476" width="2.48716" height="2.51205" rx="0.75" fill="white" stroke="black" stroke-width="0.5"/>
<line y1="-0.25" x2="1.07687" y2="-0.25" transform="matrix(0.825591 0.561508 -0.556868 0.83247 2.96808 13.7122)" stroke="#42A354" stroke-width="0.5"/>
<line y1="-0.25" x2="1.79978" y2="-0.25" transform="matrix(0.556868 -0.83247 0.825591 0.561508 3.8642 14.3069)" stroke="#42A354" stroke-width="0.5"/>
<mask id="path-11-inside-4_27_112" fill="white">
<path d="M6.30457 7.22891C6.30457 6.97938 6.50685 6.7771 6.75637 6.7771H16.9053C17.1548 6.7771 17.3571 6.97938 17.3571 7.22891V7.22891C17.3571 7.47843 17.1548 7.68071 16.9053 7.68071H6.75637C6.50685 7.68071 6.30457 7.47843 6.30457 7.22891V7.22891Z"/>
</mask>
<path d="M6.30457 7.22891C6.30457 6.70324 6.7307 6.2771 7.25637 6.2771H16.4053C16.9309 6.2771 17.3571 6.70324 17.3571 7.22891V7.22891C17.3571 7.245 17.3562 7.26109 17.3545 7.2771L6.75637 7.2771H6.30711C6.30543 7.26109 6.30457 7.245 6.30457 7.22891V7.22891ZM17.3571 7.22891C17.3571 7.75458 16.9309 8.18071 16.4053 8.18071H7.25637C6.7307 8.18071 6.30457 7.75458 6.30457 7.22891V7.22891C6.30457 7.21281 6.30543 7.19672 6.30714 7.18072L6.75637 7.18071H17.3545C17.3562 7.19672 17.3571 7.21281 17.3571 7.22891L17.3571 7.22891ZM6.30457 7.68071V6.7771V7.68071ZM17.3571 6.7771V7.68071V6.7771Z" fill="black" mask="url(#path-11-inside-4_27_112)"/>
<mask id="path-13-inside-5_27_112" fill="white">
<path d="M6.30457 8.58431C6.30457 8.33479 6.50685 8.13251 6.75637 8.13251H16.9053C17.1548 8.13251 17.3571 8.33479 17.3571 8.58431V8.58431C17.3571 8.83384 17.1548 9.03612 16.9053 9.03612H6.75637C6.50685 9.03612 6.30457 8.83384 6.30457 8.58431V8.58431Z"/>
</mask>
<path d="M6.30457 8.58431C6.30457 7.7825 6.95456 7.13251 7.75637 7.13251H15.9053C16.7071 7.13251 17.3571 7.7825 17.3571 8.58431V8.58431C17.3571 8.70414 17.3095 8.81906 17.2247 8.90379C17.14 8.98852 17.0251 9.03612 16.9053 9.03612H6.75637H6.30457H6.75637C6.63655 9.03612 6.52163 8.98852 6.4369 8.90379C6.35217 8.81906 6.30457 8.70414 6.30457 8.58431L6.30457 8.58431ZM17.3571 8.58431C17.3571 9.38613 16.7071 10.0361 15.9053 10.0361H7.75637C6.95456 10.0361 6.30457 9.38613 6.30457 8.58431V8.58431C6.30457 8.46449 6.35217 8.34957 6.4369 8.26484C6.52163 8.18011 6.63655 8.13251 6.75637 8.13251H6.75637H6.30457H16.9053C17.0251 8.13251 17.14 8.18011 17.2247 8.26484C17.3095 8.34957 17.3571 8.46449 17.3571 8.58431L17.3571 8.58431ZM6.30457 9.03612V8.13251V9.03612ZM17.3571 8.13251V9.03612V8.13251Z" fill="black" mask="url(#path-13-inside-5_27_112)"/>
<mask id="path-15-inside-6_27_112" fill="white">
<path d="M6.29999 9.85183C6.29999 9.60231 6.50227 9.40002 6.75179 9.40002H11.3482C11.5977 9.40002 11.8 9.60231 11.8 9.85183V9.85183C11.8 10.1014 11.5977 10.3036 11.3482 10.3036H6.75179C6.50227 10.3036 6.29999 10.1014 6.29999 9.85183V9.85183Z"/>
</mask>
<path d="M6.29999 9.85183C6.29999 9.05002 6.94998 8.40002 7.7518 8.40002H10.3482C11.15 8.40002 11.8 9.05002 11.8 9.85183V9.85183C11.8 9.97166 11.7524 10.0866 11.6677 10.1713C11.5829 10.256 11.468 10.3036 11.3482 10.3036H6.7518H6.29999H6.7518C6.63197 10.3036 6.51705 10.256 6.43232 10.1713C6.34759 10.0866 6.29999 9.97166 6.29999 9.85183L6.29999 9.85183ZM11.8 9.85183C11.8 10.6536 11.15 11.3036 10.3482 11.3036H7.7518C6.94998 11.3036 6.29999 10.6536 6.29999 9.85183V9.85183C6.29999 9.732 6.34759 9.61709 6.43232 9.53236C6.51705 9.44763 6.63197 9.40002 6.7518 9.40002H6.7518H6.29999H11.3482C11.468 9.40002 11.5829 9.44763 11.6677 9.53236C11.7524 9.61709 11.8 9.732 11.8 9.85183L11.8 9.85183ZM6.29999 10.3036V9.40002V10.3036ZM11.8 9.40002V10.3036V9.40002Z" fill="black" mask="url(#path-15-inside-6_27_112)"/>
<rect x="2.67126" y="6.72589" width="2.48716" height="2.51205" rx="0.75" fill="white" stroke="black" stroke-width="0.5"/>
<line y1="-0.25" x2="1.07687" y2="-0.25" transform="matrix(0.825591 0.561508 -0.556868 0.83247 2.96808 8.31219)" stroke="#42A354" stroke-width="0.5"/>
<line y1="-0.25" x2="1.79978" y2="-0.25" transform="matrix(0.556868 -0.83247 0.825591 0.561508 3.8642 8.90686)" stroke="#42A354" stroke-width="0.5"/>
<mask id="path-20-inside-7_27_112" fill="white">
<path d="M6.30457 18.0723C6.30457 17.8228 6.50685 17.6205 6.75637 17.6205H16.9053C17.1548 17.6205 17.3571 17.8228 17.3571 18.0723V18.0723C17.3571 18.3218 17.1548 18.5241 16.9053 18.5241H6.75637C6.50685 18.5241 6.30457 18.3218 6.30457 18.0723V18.0723Z"/>
</mask>
<path d="M6.30457 18.0723C6.30457 17.2705 6.95456 16.6205 7.75637 16.6205H15.9053C16.7071 16.6205 17.3571 17.2705 17.3571 18.0723V18.0723C17.3571 18.1921 17.3095 18.307 17.2247 18.3918C17.14 18.4765 17.0251 18.5241 16.9053 18.5241H6.75637H6.30457H6.75637C6.63655 18.5241 6.52163 18.4765 6.4369 18.3918C6.35217 18.307 6.30457 18.1921 6.30457 18.0723L6.30457 18.0723ZM17.3571 18.0723C17.3571 18.8741 16.7071 19.5241 15.9053 19.5241H7.75637C6.95456 19.5241 6.30457 18.8741 6.30457 18.0723V18.0723C6.30457 17.9525 6.35217 17.8375 6.4369 17.7528C6.52163 17.6681 6.63655 17.6205 6.75637 17.6205H6.75637H6.30457H16.9053C17.0251 17.6205 17.14 17.6681 17.2247 17.7528C17.3095 17.8375 17.3571 17.9525 17.3571 18.0723L17.3571 18.0723ZM6.30457 18.5241V17.6205V18.5241ZM17.3571 17.6205V18.5241V17.6205Z" fill="black" mask="url(#path-20-inside-7_27_112)"/>
<mask id="path-22-inside-8_27_112" fill="white">
<path d="M6.30457 19.4277C6.30457 19.1782 6.50685 18.9759 6.75637 18.9759H16.9053C17.1548 18.9759 17.3571 19.1782 17.3571 19.4277V19.4277C17.3571 19.6772 17.1548 19.8795 16.9053 19.8795H6.75637C6.50685 19.8795 6.30457 19.6772 6.30457 19.4277V19.4277Z"/>
</mask>
<path d="M6.30457 19.4277C6.30457 18.6259 6.95456 17.9759 7.75637 17.9759H15.9053C16.7071 17.9759 17.3571 18.6259 17.3571 19.4277V19.4277C17.3571 19.5475 17.3095 19.6624 17.2247 19.7472C17.14 19.8319 17.0251 19.8795 16.9053 19.8795H6.75637H6.30457H6.75637C6.63655 19.8795 6.52163 19.8319 6.4369 19.7472C6.35217 19.6624 6.30457 19.5475 6.30457 19.4277L6.30457 19.4277ZM17.3571 19.4277C17.3571 20.2295 16.7071 20.8795 15.9053 20.8795H7.75637C6.95456 20.8795 6.30457 20.2295 6.30457 19.4277V19.4277C6.30457 19.3079 6.35217 19.193 6.4369 19.1082C6.52163 19.0235 6.63655 18.9759 6.75637 18.9759H6.75637H6.30457H16.9053C17.0251 18.9759 17.14 19.0235 17.2247 19.1082C17.3095 19.193 17.3571 19.3079 17.3571 19.4277L17.3571 19.4277ZM6.30457 19.8795V18.9759V19.8795ZM17.3571 18.9759V19.8795V18.9759Z" fill="black" mask="url(#path-22-inside-8_27_112)"/>
<mask id="path-24-inside-9_27_112" fill="white">
<path d="M6.29999 20.8518C6.29999 20.6023 6.50227 20.4 6.75179 20.4H11.3482C11.5977 20.4 11.8 20.6023 11.8 20.8518V20.8518C11.8 21.1014 11.5977 21.3036 11.3482 21.3036H6.75179C6.50227 21.3036 6.29999 21.1014 6.29999 20.8518V20.8518Z"/>
</mask>
<path d="M6.29999 20.8518C6.29999 20.05 6.94998 19.4 7.7518 19.4H10.3482C11.15 19.4 11.8 20.05 11.8 20.8518V20.8518C11.8 20.9717 11.7524 21.0866 11.6677 21.1713C11.5829 21.256 11.468 21.3036 11.3482 21.3036H6.7518H6.29999H6.7518C6.63197 21.3036 6.51705 21.256 6.43232 21.1713C6.34759 21.0866 6.29999 20.9717 6.29999 20.8518L6.29999 20.8518ZM11.8 20.8518C11.8 21.6536 11.15 22.3036 10.3482 22.3036H7.7518C6.94998 22.3036 6.29999 21.6536 6.29999 20.8518V20.8518C6.29999 20.732 6.34759 20.6171 6.43232 20.5324C6.51705 20.4476 6.63197 20.4 6.7518 20.4H6.7518H6.29999H11.3482C11.468 20.4 11.5829 20.4476 11.6677 20.5324C11.7524 20.6171 11.8 20.732 11.8 20.8518L11.8 20.8518ZM6.29999 21.3036V20.4V21.3036ZM11.8 20.4V21.3036V20.4Z" fill="black" mask="url(#path-24-inside-9_27_112)"/>
<rect x="2.67126" y="17.5693" width="2.48716" height="2.51205" rx="0.75" fill="white" stroke="black" stroke-width="0.5"/>
<line y1="-0.25" x2="1.07687" y2="-0.25" transform="matrix(0.825591 0.561508 -0.556868 0.83247 2.96808 19.1122)" stroke="#42A354" stroke-width="0.5"/>
<line y1="-0.25" x2="1.79978" y2="-0.25" transform="matrix(0.556868 -0.83247 0.825591 0.561508 3.8642 19.7068)" stroke="#42A354" stroke-width="0.5"/>
<path d="M4.06421 3.21082C4.06421 2.93467 4.28807 2.71082 4.56421 2.71082H15.5129C15.789 2.71082 16.0129 2.93467 16.0129 3.21082V4.01804C16.0129 4.29419 15.789 4.51804 15.5129 4.51804H4.56421C4.28807 4.51804 4.06421 4.29419 4.06421 4.01804V3.21082Z" fill="#D9D9D9"/>
<ellipse cx="10.0385" cy="2.71087" rx="2.98716" ry="0.903614" fill="#D9D9D9"/>
</svg>
