<svg width="31" height="25" viewBox="0 0 31 25" fill="none" xmlns="http://www.w3.org/2000/svg">
<path d="M2.0498 3.375H27.7089C28.6754 3.375 29.4589 4.1585 29.4589 5.125V23C29.4589 23.9665 28.6754 24.75 27.7089 24.75H2.0498C1.08331 24.75 0.299805 23.9665 0.299805 23V5.125C0.299805 4.1585 1.08331 3.375 2.0498 3.375Z" fill="#8C6969" stroke="black" stroke-width="0.5"/>
<path d="M2.78657 4.42297L24.0787 0.429421C24.4858 0.353063 24.8822 0.620336 24.964 1.02639L26.0558 6.44618C26.5738 9.01787 24.9036 11.4947 22.3252 11.9783L4.22738 15.3727L2.19753 5.29646C2.11573 4.89041 2.37945 4.49933 2.78657 4.42297Z" fill="#082777" stroke="black" stroke-width="0.5"/>
<path d="M2.95177 4.61051L24.4325 1.69751C24.8429 1.64185 25.2241 1.92901 25.2838 2.3389L26.0796 7.80266C26.4577 10.3986 24.6569 12.7888 22.0573 13.1414L3.79709 15.6176L2.31667 5.45346C2.25697 5.04357 2.54131 4.66617 2.95177 4.61051Z" fill="#8F8D8C" stroke="black" stroke-width="0.5"/>
<path d="M2.94384 4.789L24.5539 2.9647C24.9667 2.92986 25.3316 3.23603 25.369 3.64855L25.8671 9.14241C26.104 11.755 24.1769 14.0519 21.5629 14.2726L3.19127 15.8235L2.26422 5.59903C2.22681 5.18651 2.53109 4.82385 2.94384 4.789Z" fill="#567708" stroke="black" stroke-width="0.5"/>
<path d="M0.300842 5.43866H26.9627C27.9292 5.43866 28.7127 6.22216 28.7127 7.18866V24C28.7127 24.4142 28.3769 24.75 27.9627 24.75H2.05084C1.08434 24.75 0.300842 23.9665 0.300842 23V5.43866Z" fill="#935635" stroke="black" stroke-width="0.5"/>
<path d="M22.8715 13.2H29.1932C29.635 13.2 29.9932 13.5582 29.9932 14V14.5111V15.4539C29.9932 15.8958 29.635 16.2539 29.1932 16.2539H22.9232C22.6193 16.2539 22.3416 16.0817 22.2065 15.8094L21.7785 14.9462C21.7269 14.8422 21.7 14.7276 21.7 14.6115C21.7 14.4758 21.7366 14.3427 21.806 14.2261L22.184 13.5909C22.3283 13.3485 22.5895 13.2 22.8715 13.2Z" fill="#844D4D" stroke="black" stroke-width="0.4"/>
<path d="M23.9973 14.6706C23.9973 15.0376 23.6879 15.3411 23.2987 15.3411C22.9094 15.3411 22.6 15.0376 22.6 14.6706C22.6 14.3036 22.9094 14 23.2987 14C23.6879 14 23.9973 14.3036 23.9973 14.6706Z" fill="#433D3D" stroke="black" stroke-width="0.2"/>
</svg>
