<svg width="35" height="25" viewBox="0 0 35 25" fill="none" xmlns="http://www.w3.org/2000/svg">
<path d="M7.7606 19.1261L7.84846 19.175C8.64062 19.6157 9.13179 20.451 9.13179 21.3574C9.13179 22.2639 8.64062 23.0992 7.84846 23.5399L7.7606 23.5888C6.95401 24.0375 5.97281 24.0375 5.16621 23.5888L5.07835 23.5399C4.2862 23.0992 3.79502 22.2639 3.79502 21.3574C3.79502 20.451 4.2862 19.6157 5.07835 19.175L5.16621 19.1261C5.97281 18.6774 6.95401 18.6774 7.7606 19.1261Z" stroke="black"/>
<path d="M15.0777 19.1261L15.1655 19.175C15.9577 19.6157 16.4489 20.451 16.4489 21.3574C16.4489 22.2639 15.9577 23.0992 15.1655 23.5399L15.0777 23.5888C14.2711 24.0375 13.2899 24.0375 12.4833 23.5888L12.3954 23.5399C11.6033 23.0992 11.1121 22.2639 11.1121 21.3574C11.1121 20.451 11.6033 19.6157 12.3954 19.175L12.4833 19.1261C13.2899 18.6774 14.2711 18.6774 15.0777 19.1261Z" stroke="black"/>
<path d="M29.5899 19.2436L29.6777 19.2925C30.4699 19.7332 30.9611 20.5685 30.9611 21.4749C30.9611 22.3814 30.4699 23.2167 29.6777 23.6574L29.5899 23.7062C28.7833 24.155 27.8021 24.155 26.9955 23.7062L26.9076 23.6574C26.1155 23.2167 25.6243 22.3814 25.6243 21.4749C25.6243 20.5685 26.1155 19.7332 26.9076 19.2925L26.9955 19.2436C27.8021 18.7949 28.7833 18.7949 29.5899 19.2436Z" stroke="black"/>
<path d="M4.72974 8.40741C4.72974 7.85512 5.17745 7.40741 5.72974 7.40741H11.2973C11.8496 7.40741 12.2973 7.85512 12.2973 8.40741V14.8148H4.72974V8.40741Z" fill="#DCC37D"/>
<line x1="10.9054" y1="8.33331" x2="10.9054" y2="13.8889" stroke="#B47E40"/>
<line x1="6.17569" y1="8.33331" x2="6.17569" y2="13.8889" stroke="#B47E40"/>
<line x1="10.4054" y1="13.463" x2="5.67566" y2="13.463" stroke="#B47E40"/>
<line x1="10.4054" y1="8.83331" x2="5.67566" y2="8.83331" stroke="#B47E40"/>
<line x1="9.45947" y1="12.463" x2="10.4054" y2="12.463" stroke="#B47E40"/>
<line x1="8.51352" y1="11.537" x2="9.45947" y2="11.537" stroke="#B47E40"/>
<line x1="7.56757" y1="10.6111" x2="8.51351" y2="10.6111" stroke="#B47E40"/>
<line x1="6.62161" y1="9.68518" x2="7.56756" y2="9.68518" stroke="#B47E40"/>
<path d="M8.51352 1C8.51352 0.447715 8.96123 0 9.51352 0H15.0811C15.6334 0 16.0811 0.447715 16.0811 1V7.40741H8.51352V1Z" fill="#DCC37D"/>
<line x1="14.6892" y1="0.925903" x2="14.6892" y2="6.48146" stroke="#B47E40"/>
<line x1="9.95947" y1="0.925903" x2="9.95947" y2="6.48146" stroke="#B47E40"/>
<line x1="14.1892" y1="6.05554" x2="9.45946" y2="6.05554" stroke="#B47E40"/>
<line x1="14.1892" y1="1.4259" x2="9.45946" y2="1.4259" stroke="#B47E40"/>
<line x1="13.2433" y1="5.05554" x2="14.1892" y2="5.05554" stroke="#B47E40"/>
<line x1="12.2973" y1="4.12964" x2="13.2432" y2="4.12964" stroke="#B47E40"/>
<line x1="11.3513" y1="3.20367" x2="12.2973" y2="3.20367" stroke="#B47E40"/>
<line x1="10.4054" y1="2.27777" x2="11.3513" y2="2.27777" stroke="#B47E40"/>
<path d="M12.2973 8.40741C12.2973 7.85512 12.745 7.40741 13.2973 7.40741H18.8649C19.4172 7.40741 19.8649 7.85512 19.8649 8.40741V14.8148H12.2973V8.40741Z" fill="#DCC37D"/>
<line x1="18.473" y1="8.33331" x2="18.473" y2="13.8889" stroke="#B47E40"/>
<line x1="13.7433" y1="8.33331" x2="13.7433" y2="13.8889" stroke="#B47E40"/>
<line x1="17.973" y1="13.463" x2="13.2432" y2="13.463" stroke="#B47E40"/>
<line x1="17.973" y1="8.83331" x2="13.2432" y2="8.83331" stroke="#B47E40"/>
<line x1="17.027" y1="12.463" x2="17.973" y2="12.463" stroke="#B47E40"/>
<line x1="16.0811" y1="11.537" x2="17.027" y2="11.537" stroke="#B47E40"/>
<line x1="15.1351" y1="10.6111" x2="16.0811" y2="10.6111" stroke="#B47E40"/>
<line x1="14.1892" y1="9.68518" x2="15.1351" y2="9.68518" stroke="#B47E40"/>
<mask id="path-31-inside-1_20_35" fill="white">
<path d="M0 13.7221C0 12.6175 0.89543 11.7221 2 11.7221H21.7073V20.6524H5C2.23857 20.6524 0 18.4138 0 15.6524V13.7221Z"/>
</mask>
<path d="M0 13.7221C0 12.6175 0.89543 11.7221 2 11.7221H21.7073V20.6524H5C2.23857 20.6524 0 18.4138 0 15.6524V13.7221Z" fill="#D9D9D9"/>
<path d="M-1 13.7221C-1 12.0653 0.343146 10.7221 2 10.7221H21.7073V12.7221H2C1.44772 12.7221 1 13.1698 1 13.7221H-1ZM21.7073 21.6524H5C1.68629 21.6524 -1 18.9661 -1 15.6524H1C1 17.8615 2.79086 19.6524 5 19.6524H21.7073V21.6524ZM5 21.6524C1.68629 21.6524 -1 18.9661 -1 15.6524V13.7221C-1 12.0653 0.343146 10.7221 2 10.7221V12.7221C1.44772 12.7221 1 13.1698 1 13.7221V15.6524C1 17.8615 2.79086 19.6524 5 19.6524V21.6524ZM21.7073 11.7221V20.6524V11.7221Z" fill="black" mask="url(#path-31-inside-1_20_35)"/>
<path d="M34.5 13.9361V18.9433C34.5 19.611 33.9586 20.1524 33.2909 20.1524H22.2073V3.06029C22.2073 2.66904 22.5245 2.35187 22.9157 2.35187C29.3135 2.35187 34.5 7.53832 34.5 13.9361Z" fill="#D9D9D9" stroke="black"/>
<path d="M24.0244 4.90686H25.7458C29.5097 4.90686 32.561 7.95813 32.561 11.7221V11.7221H24.0244V4.90686Z" fill="#FFFEFE"/>
</svg>
