<svg width="25" height="25" viewBox="0 0 25 25" fill="none" xmlns="http://www.w3.org/2000/svg">
<circle cx="12.5" cy="12.5" r="12.25" fill="white" stroke="black" stroke-width="0.5"/>
<path d="M23.8365 13.5477C23.7428 13.5477 23.6592 13.5316 23.5858 13.4994C23.5129 13.4672 23.4549 13.4224 23.4118 13.3651C23.3692 13.3074 23.346 13.2404 23.3422 13.1641H23.5212C23.525 13.211 23.541 13.2515 23.5695 13.2856C23.5979 13.3192 23.635 13.3452 23.681 13.3637C23.7269 13.3822 23.7778 13.3914 23.8337 13.3914C23.8962 13.3914 23.9516 13.3805 23.9999 13.3587C24.0482 13.337 24.086 13.3067 24.1135 13.2678C24.141 13.229 24.1547 13.184 24.1547 13.1329C24.1547 13.0794 24.1414 13.0323 24.1149 12.9915C24.0884 12.9504 24.0496 12.9182 23.9984 12.895C23.9473 12.8718 23.8848 12.8602 23.8109 12.8602H23.6945V12.7039H23.8109C23.8687 12.7039 23.9194 12.6935 23.9629 12.6727C24.007 12.6518 24.0413 12.6225 24.0659 12.5846C24.091 12.5467 24.1035 12.5022 24.1035 12.4511C24.1035 12.4018 24.0927 12.359 24.0709 12.3225C24.0491 12.2861 24.0183 12.2576 23.9785 12.2373C23.9392 12.2169 23.8928 12.2067 23.8393 12.2067C23.7892 12.2067 23.7418 12.216 23.6973 12.2344C23.6533 12.2524 23.6173 12.2787 23.5893 12.3133C23.5614 12.3474 23.5463 12.3886 23.5439 12.4369H23.3734C23.3763 12.3606 23.3992 12.2939 23.4423 12.2366C23.4854 12.1788 23.5418 12.1338 23.6114 12.1016C23.6814 12.0694 23.7584 12.0533 23.8422 12.0533C23.9321 12.0533 24.0093 12.0716 24.0737 12.108C24.1381 12.144 24.1876 12.1916 24.2222 12.2508C24.2567 12.31 24.274 12.3739 24.274 12.4425C24.274 12.5245 24.2525 12.5943 24.2094 12.6521C24.1668 12.7098 24.1088 12.7498 24.0354 12.7721V12.7835C24.1272 12.7986 24.199 12.8377 24.2506 12.9006C24.3022 12.9631 24.328 13.0406 24.328 13.1329C24.328 13.212 24.3064 13.283 24.2634 13.346C24.2207 13.4085 24.1625 13.4577 24.0886 13.4937C24.0148 13.5297 23.9307 13.5477 23.8365 13.5477Z" fill="black"/>
<path d="M12.7168 24.5199C12.6572 24.5189 12.5975 24.5076 12.5379 24.4858C12.4782 24.464 12.4237 24.4273 12.3745 24.3757C12.3253 24.3236 12.2857 24.2533 12.2559 24.1648C12.2261 24.0758 12.2112 23.964 12.2112 23.8295C12.2112 23.7008 12.2232 23.5866 12.2474 23.4872C12.2715 23.3873 12.3066 23.3033 12.3525 23.2351C12.3984 23.1664 12.4538 23.1143 12.5187 23.0788C12.584 23.0433 12.6577 23.0256 12.7396 23.0256C12.821 23.0256 12.8934 23.0419 12.9569 23.0746C13.0208 23.1068 13.0729 23.1518 13.1131 23.2095C13.1534 23.2673 13.1794 23.3338 13.1913 23.4091H13.018C13.0019 23.3437 12.9706 23.2895 12.9242 23.2464C12.8778 23.2034 12.8163 23.1818 12.7396 23.1818C12.6269 23.1818 12.5381 23.2308 12.4732 23.3288C12.4088 23.4268 12.3764 23.5644 12.3759 23.7415H12.3873C12.4138 23.7012 12.4453 23.6669 12.4818 23.6385C12.5187 23.6096 12.5594 23.5874 12.6039 23.5717C12.6484 23.5561 12.6955 23.5483 12.7452 23.5483C12.8286 23.5483 12.9048 23.5691 12.9739 23.6108C13.0431 23.652 13.0985 23.709 13.1401 23.782C13.1818 23.8544 13.2026 23.9375 13.2026 24.0312C13.2026 24.1212 13.1825 24.2036 13.1423 24.2784C13.102 24.3527 13.0454 24.4119 12.9725 24.456C12.9001 24.4995 12.8148 24.5208 12.7168 24.5199ZM12.7168 24.3636C12.7765 24.3636 12.83 24.3487 12.8773 24.3189C12.9252 24.2891 12.9628 24.2491 12.9903 24.1989C13.0182 24.1487 13.0322 24.0928 13.0322 24.0312C13.0322 23.9711 13.0187 23.9164 12.9917 23.8672C12.9652 23.8175 12.9285 23.7779 12.8816 23.7486C12.8352 23.7192 12.7822 23.7045 12.7225 23.7045C12.6775 23.7045 12.6356 23.7135 12.5968 23.7315C12.558 23.7491 12.5239 23.7732 12.4945 23.804C12.4657 23.8348 12.4429 23.87 12.4264 23.9098C12.4098 23.9491 12.4015 23.9905 12.4015 24.0341C12.4015 24.0919 12.415 24.1458 12.442 24.196C12.4694 24.2462 12.5068 24.2867 12.5542 24.3175C12.602 24.3482 12.6562 24.3636 12.7168 24.3636Z" fill="black"/>
<path d="M1.30809 12.0533C1.36775 12.0538 1.42741 12.0652 1.48707 12.0874C1.54673 12.1097 1.60118 12.1466 1.65042 12.1982C1.69967 12.2494 1.7392 12.3192 1.76903 12.4077C1.79886 12.4963 1.81378 12.6073 1.81378 12.7408C1.81378 12.8701 1.80147 12.9849 1.77684 13.0853C1.7527 13.1852 1.71766 13.2695 1.67173 13.3381C1.62628 13.4068 1.57088 13.4589 1.50554 13.4944C1.44067 13.5299 1.36728 13.5477 1.28537 13.5477C1.20393 13.5477 1.13125 13.5316 1.06733 13.4994C1.00388 13.4667 0.951797 13.4215 0.911077 13.3637C0.870831 13.3055 0.845026 13.238 0.833663 13.1613H1.00696C1.02258 13.2281 1.0536 13.2832 1.1 13.3268C1.14687 13.3699 1.20866 13.3914 1.28537 13.3914C1.39758 13.3914 1.48612 13.3424 1.55099 13.2444C1.61633 13.1464 1.649 13.0079 1.649 12.8289H1.63764C1.61112 12.8687 1.57964 12.903 1.54318 12.9319C1.50672 12.9608 1.46624 12.983 1.42173 12.9987C1.37722 13.0143 1.32987 13.0221 1.27969 13.0221C1.19635 13.0221 1.11988 13.0015 1.05028 12.9603C0.981153 12.9186 0.925755 12.8616 0.884089 12.7891C0.842896 12.7162 0.822299 12.6329 0.822299 12.5391C0.822299 12.4501 0.842185 12.3687 0.881958 12.2948C0.922204 12.2205 0.978549 12.1613 1.05099 12.1173C1.12391 12.0732 1.20961 12.0519 1.30809 12.0533ZM1.30809 12.2096C1.24844 12.2096 1.19469 12.2245 1.14687 12.2543C1.09952 12.2837 1.06188 12.3235 1.03395 12.3737C1.00648 12.4234 0.992753 12.4785 0.992753 12.5391C0.992753 12.5997 1.00601 12.6549 1.03253 12.7046C1.05951 12.7539 1.09621 12.7932 1.14261 12.8225C1.18949 12.8514 1.24275 12.8658 1.30241 12.8658C1.34739 12.8658 1.3893 12.8571 1.42812 12.8396C1.46695 12.8216 1.5008 12.7972 1.52969 12.7664C1.55904 12.7352 1.58201 12.6999 1.59858 12.6606C1.61515 12.6208 1.62344 12.5794 1.62344 12.5363C1.62344 12.4795 1.6097 12.4262 1.58224 12.3765C1.55525 12.3268 1.51785 12.2865 1.47003 12.2558C1.42268 12.225 1.3687 12.2096 1.30809 12.2096Z" fill="black"/>
<line x1="12.55" y1="3.29999" x2="12.55" y2="12.3" stroke="black" stroke-width="0.5"/>
<line x1="22" y1="12.85" x2="13" y2="12.85" stroke="black" stroke-width="0.5"/>
<path d="M12.1619 1.04545V2.5H11.9858V1.23011H11.9773L11.6222 1.46591V1.28693L11.9858 1.04545H12.1619ZM12.5803 2.5V2.37216L13.0604 1.84659C13.1167 1.78504 13.1631 1.73153 13.1996 1.68608C13.236 1.64015 13.263 1.59706 13.2805 1.55682C13.2985 1.5161 13.3075 1.47348 13.3075 1.42898C13.3075 1.37784 13.2952 1.33357 13.2706 1.29616C13.2464 1.25876 13.2133 1.22988 13.1712 1.20952C13.129 1.18916 13.0817 1.17898 13.0291 1.17898C12.9732 1.17898 12.9245 1.19058 12.8828 1.21378C12.8416 1.23651 12.8097 1.26847 12.7869 1.30966C12.7647 1.35085 12.7536 1.39915 12.7536 1.45455H12.5859C12.5859 1.36932 12.6056 1.29451 12.6449 1.23011C12.6842 1.16572 12.7377 1.11553 12.8054 1.07955C12.8736 1.04356 12.95 1.02557 13.0348 1.02557C13.12 1.02557 13.1955 1.04356 13.2614 1.07955C13.3272 1.11553 13.3788 1.16406 13.4162 1.22514C13.4536 1.28622 13.4723 1.35417 13.4723 1.42898C13.4723 1.48248 13.4626 1.5348 13.4432 1.58594C13.4242 1.6366 13.3911 1.69318 13.3438 1.75568C13.2969 1.81771 13.2318 1.89347 13.1484 1.98295L12.8217 2.33239V2.34375H13.4979V2.5H12.5803Z" fill="black"/>
<path d="M21.5054 18.6462V18.5013L22.1446 17.4899H22.2497V17.7143H22.1787L21.6957 18.4785V18.4899H22.5565V18.6462H21.5054ZM22.1901 18.9445V18.6021V18.5347V17.4899H22.3577V18.9445H22.1901Z" fill="black"/>
<path d="M2.66193 6.54545V8H2.4858V6.73011H2.47727L2.12216 6.96591V6.78693L2.4858 6.54545H2.66193ZM3.55469 8.01989C3.44768 8.01989 3.35653 7.99077 3.28125 7.93253C3.20597 7.87382 3.14844 7.78883 3.10866 7.67756C3.06889 7.56581 3.04901 7.43087 3.04901 7.27273C3.04901 7.11553 3.06889 6.9813 3.10866 6.87003C3.14891 6.75829 3.20668 6.67306 3.28196 6.61435C3.35772 6.55516 3.44863 6.52557 3.55469 6.52557C3.66075 6.52557 3.75142 6.55516 3.8267 6.61435C3.90246 6.67306 3.96023 6.75829 4 6.87003C4.04025 6.9813 4.06037 7.11553 4.06037 7.27273C4.06037 7.43087 4.04048 7.56581 4.00071 7.67756C3.96094 7.78883 3.90341 7.87382 3.82812 7.93253C3.75284 7.99077 3.6617 8.01989 3.55469 8.01989ZM3.55469 7.86364C3.66075 7.86364 3.74313 7.8125 3.80185 7.71023C3.86056 7.60795 3.88991 7.46212 3.88991 7.27273C3.88991 7.14678 3.87642 7.03954 3.84943 6.95099C3.82292 6.86245 3.78456 6.79498 3.73438 6.74858C3.68466 6.70218 3.62476 6.67898 3.55469 6.67898C3.44957 6.67898 3.36742 6.73082 3.30824 6.83452C3.24905 6.93774 3.21946 7.08381 3.21946 7.27273C3.21946 7.39867 3.23272 7.50568 3.25923 7.59375C3.28575 7.68182 3.32386 7.74882 3.37358 7.79474C3.42377 7.84067 3.48414 7.86364 3.55469 7.86364Z" fill="black"/>
<path d="M3.25539 18.9643C3.15786 18.9643 3.07168 18.9471 2.99687 18.9125C2.92253 18.8775 2.86453 18.8294 2.82286 18.7683C2.7812 18.7068 2.7606 18.6367 2.76108 18.5581C2.7606 18.4965 2.77268 18.4397 2.7973 18.3876C2.82192 18.3351 2.85554 18.2913 2.89815 18.2562C2.94124 18.2207 2.98929 18.1982 3.04233 18.1888V18.1803C2.97272 18.1623 2.91733 18.1232 2.87613 18.0631C2.83494 18.0025 2.81458 17.9336 2.81505 17.8564C2.81458 17.7825 2.83328 17.7165 2.87116 17.6582C2.90904 17.6 2.96112 17.5541 3.02741 17.5205C3.09417 17.4868 3.17017 17.47 3.25539 17.47C3.33967 17.47 3.41496 17.4868 3.48125 17.5205C3.54753 17.5541 3.59962 17.6 3.6375 17.6582C3.67585 17.7165 3.69526 17.7825 3.69573 17.8564C3.69526 17.9336 3.67419 18.0025 3.63252 18.0631C3.59133 18.1232 3.53664 18.1623 3.46846 18.1803V18.1888C3.52102 18.1982 3.56837 18.2207 3.61051 18.2562C3.65265 18.2913 3.68626 18.3351 3.71136 18.3876C3.73645 18.4397 3.74924 18.4965 3.74971 18.5581C3.74924 18.6367 3.72793 18.7068 3.68579 18.7683C3.64412 18.8294 3.58612 18.8775 3.51179 18.9125C3.43792 18.9471 3.35246 18.9643 3.25539 18.9643ZM3.25539 18.8081C3.32121 18.8081 3.37803 18.7974 3.42585 18.7761C3.47367 18.7548 3.5106 18.7248 3.53664 18.6859C3.56268 18.6471 3.57594 18.6017 3.57642 18.5496C3.57594 18.4946 3.56174 18.4461 3.5338 18.404C3.50587 18.3618 3.46775 18.3287 3.41946 18.3045C3.37163 18.2804 3.31695 18.2683 3.25539 18.2683C3.19337 18.2683 3.13797 18.2804 3.0892 18.3045C3.0409 18.3287 3.00279 18.3618 2.97485 18.404C2.94739 18.4461 2.9339 18.4946 2.93437 18.5496C2.9339 18.6017 2.94644 18.6471 2.97201 18.6859C2.99805 18.7248 3.03522 18.7548 3.08352 18.7761C3.13181 18.7974 3.18911 18.8081 3.25539 18.8081ZM3.25539 18.1178C3.30748 18.1178 3.35364 18.1073 3.39389 18.0865C3.43461 18.0657 3.46657 18.0366 3.48977 17.9991C3.51297 17.9617 3.52481 17.9179 3.52528 17.8678C3.52481 17.8185 3.51321 17.7757 3.49048 17.7392C3.46775 17.7023 3.43626 17.6739 3.39602 17.654C3.35577 17.6336 3.3089 17.6234 3.25539 17.6234C3.20094 17.6234 3.15336 17.6336 3.11264 17.654C3.07192 17.6739 3.04043 17.7023 3.01818 17.7392C2.99592 17.7757 2.98503 17.8185 2.98551 17.8678C2.98503 17.9179 2.99616 17.9617 3.01889 17.9991C3.04209 18.0366 3.07405 18.0657 3.11477 18.0865C3.15549 18.1073 3.20236 18.1178 3.25539 18.1178Z" fill="black"/>
<path d="M21.6783 7.97223V7.84439L22.1585 7.31882C22.2148 7.25727 22.2612 7.20376 22.2977 7.15831C22.3341 7.11238 22.3611 7.06929 22.3786 7.02905C22.3966 6.98833 22.4056 6.94571 22.4056 6.90121C22.4056 6.85007 22.3933 6.8058 22.3687 6.76839C22.3445 6.73099 22.3114 6.70211 22.2692 6.68175C22.2271 6.66139 22.1798 6.65121 22.1272 6.65121C22.0713 6.65121 22.0226 6.66281 21.9809 6.68601C21.9397 6.70873 21.9077 6.74069 21.885 6.78189C21.8628 6.82308 21.8516 6.87138 21.8516 6.92677H21.684C21.684 6.84155 21.7037 6.76674 21.743 6.70234C21.7823 6.63795 21.8358 6.58776 21.9035 6.55177C21.9717 6.51579 22.0481 6.4978 22.1329 6.4978C22.2181 6.4978 22.2936 6.51579 22.3594 6.55177C22.4253 6.58776 22.4769 6.63629 22.5143 6.69737C22.5517 6.75845 22.5704 6.8264 22.5704 6.90121C22.5704 6.95471 22.5607 7.00703 22.5413 7.05817C22.5223 7.10883 22.4892 7.16541 22.4418 7.22791C22.395 7.28994 22.3299 7.36569 22.2465 7.45518L21.9198 7.80462V7.81598H22.596V7.97223H21.6783Z" fill="black"/>
<path d="M7.14048 22.8333L7.79105 21.5464V21.535H7.04105V21.3788H7.97287V21.5435L7.32514 22.8333H7.14048Z" fill="black"/>
<path d="M17.9662 22.8532C17.8829 22.8532 17.8078 22.8366 17.7411 22.8035C17.6743 22.7703 17.6208 22.7249 17.5805 22.6671C17.5403 22.6094 17.5183 22.5435 17.5145 22.4697H17.6849C17.6916 22.5355 17.7214 22.5899 17.7744 22.633C17.8279 22.6756 17.8919 22.6969 17.9662 22.6969C18.0259 22.6969 18.0789 22.683 18.1253 22.655C18.1722 22.6271 18.2089 22.5888 18.2354 22.54C18.2624 22.4907 18.2759 22.4351 18.2759 22.3731C18.2759 22.3096 18.2619 22.2531 18.234 22.2033C18.2065 22.1532 18.1686 22.1136 18.1203 22.0847C18.072 22.0559 18.0169 22.0412 17.9548 22.0407C17.9103 22.0402 17.8646 22.0471 17.8178 22.0613C17.7709 22.075 17.7323 22.0928 17.702 22.1146L17.5372 22.0947L17.6253 21.3788H18.381V21.535H17.773L17.7219 21.964H17.7304C17.7602 21.9403 17.7976 21.9207 17.8426 21.905C17.8876 21.8894 17.9345 21.8816 17.9832 21.8816C18.0723 21.8816 18.1516 21.9029 18.2212 21.9455C18.2912 21.9877 18.3462 22.0454 18.3859 22.1188C18.4262 22.1922 18.4463 22.276 18.4463 22.3702C18.4463 22.463 18.4255 22.5459 18.3838 22.6188C18.3426 22.6913 18.2858 22.7486 18.2134 22.7907C18.1409 22.8324 18.0585 22.8532 17.9662 22.8532Z" fill="black"/>
<path d="M6.66193 2.54545V4H6.4858V2.73011H6.47727L6.12216 2.96591V2.78693L6.4858 2.54545H6.66193ZM7.59162 2.54545V4H7.41548V2.73011H7.40696L7.05185 2.96591V2.78693L7.41548 2.54545H7.59162Z" fill="black"/>
<path d="M18.3008 2.62877V4.08331H18.1247V2.81343H18.1162L17.7611 3.04922V2.87024L18.1247 2.62877H18.3008Z" fill="black"/>
<path d="M12.3661 3.56944L12.5345 3.27777L12.7029 3.56944H12.3661Z" fill="black" stroke="black" stroke-width="0.5"/>
<path d="M21.3346 12.3658L22.1447 12.8391L21.3298 13.304L21.3346 12.3658Z" fill="black" stroke="black" stroke-width="0.5"/>
<circle cx="12.5694" cy="12.8333" r="0.583333" stroke="black" stroke-width="0.5"/>
<circle cx="12.57" cy="12.83" r="0.95" stroke="black" stroke-width="0.1"/>
</svg>
